<?xml version="1.0" encoding="UTF-8" ?>
<!DOCTYPE svg PUBLIC "-//W3C//DTD SVG 1.1//EN" "http://www.w3.org/Graphics/SVG/1.1/DTD/svg11.dtd">
<svg width="128pt" height="128pt" viewBox="0 0 128 128" version="1.1" xmlns="http://www.w3.org/2000/svg">
<path fill="#fefefd" d=" M 0.00 0.00 L 128.00 0.00 L 128.00 128.00 L 0.00 128.00 L 0.00 0.00 Z" />
<path fill="#fde251" d=" M 68.28 11.13 C 73.55 11.61 82.17 4.48 89.14 7.31 C 83.49 12.50 75.30 11.32 68.28 11.13 Z" />
<path fill="#f7a826" d=" M 89.14 7.31 C 90.96 5.07 96.36 5.66 92.18 8.16 C 88.62 9.78 91.57 10.40 93.86 11.19 C 93.91 11.63 94.02 12.52 94.08 12.96 C 91.64 12.19 89.09 10.92 86.53 12.04 C 87.31 16.81 80.50 12.42 77.80 13.09 C 73.50 11.92 73.86 14.14 75.78 17.06 C 70.02 23.00 60.81 19.49 55.00 24.19 C 56.32 27.20 60.15 27.50 61.90 30.08 C 59.77 28.97 58.28 28.97 59.05 31.79 C 58.04 31.48 57.03 31.19 56.02 30.89 C 53.29 25.51 47.93 22.40 43.28 18.90 C 42.97 18.59 42.35 17.98 42.04 17.68 C 41.42 17.05 40.80 16.43 40.17 15.81 C 40.31 14.86 38.97 11.30 40.74 12.19 C 41.99 14.81 43.70 19.82 47.38 18.49 C 50.98 18.41 49.55 14.24 50.33 11.83 C 55.41 12.26 60.40 13.35 65.44 14.06 C 65.04 12.10 66.75 11.62 68.28 11.13 C 75.30 11.32 83.49 12.50 89.14 7.31 Z" />
<path fill="#d96c12" d=" M 40.74 12.19 C 40.50 8.73 46.51 11.24 48.74 11.27 C 49.13 11.41 49.93 11.69 50.33 11.83 C 49.55 14.24 50.98 18.41 47.38 18.49 C 43.70 19.82 41.99 14.81 40.74 12.19 Z" />
<path fill="#fcd755" d=" M 48.74 11.27 C 55.24 10.93 61.77 10.82 68.28 11.13 C 66.75 11.62 65.04 12.10 65.44 14.06 C 60.40 13.35 55.41 12.26 50.33 11.83 C 49.93 11.69 49.13 11.41 48.74 11.27 Z" />
<path fill="#f06d1a" d=" M 86.53 12.04 C 89.09 10.92 91.64 12.19 94.08 12.96 C 96.07 13.66 98.06 14.37 100.09 14.95 L 100.83 15.19 C 103.48 17.13 105.61 20.03 108.86 20.96 L 109.70 21.23 C 111.20 22.44 112.62 23.74 113.98 25.11 C 114.31 25.62 114.97 26.63 115.30 27.13 C 115.98 28.43 116.65 29.74 117.29 31.06 C 108.88 31.96 102.98 22.85 94.29 24.10 C 91.10 27.40 89.94 32.75 85.22 34.31 C 87.25 29.98 83.95 26.80 81.90 23.38 C 90.19 21.91 77.10 17.65 77.80 13.09 C 80.50 12.42 87.31 16.81 86.53 12.04 Z" />
<path fill="#fdce74" d=" M 93.86 11.19 C 96.50 10.85 98.77 12.85 100.09 14.95 C 98.06 14.37 96.07 13.66 94.08 12.96 C 94.02 12.52 93.91 11.63 93.86 11.19 Z" />
<path fill="#f6851a" d=" M 75.78 17.06 C 73.86 14.14 73.50 11.92 77.80 13.09 C 77.10 17.65 90.19 21.91 81.90 23.38 C 83.95 26.80 87.25 29.98 85.22 34.31 C 84.93 35.28 84.63 36.26 84.34 37.24 C 84.02 31.62 82.55 23.97 75.26 24.88 C 75.44 26.67 75.31 28.71 76.83 29.99 C 69.89 29.87 79.92 37.18 75.77 41.19 C 73.18 39.25 70.62 37.27 68.11 35.23 C 66.74 33.69 65.56 30.47 63.01 31.75 C 62.73 31.33 62.17 30.50 61.90 30.08 C 60.15 27.50 56.32 27.20 55.00 24.19 C 60.81 19.49 70.02 23.00 75.78 17.06 Z" />
<path fill="#f8cf78" d=" M 100.83 15.19 C 102.98 15.73 111.74 16.70 106.91 18.88 C 108.96 18.88 111.10 18.95 108.86 20.96 C 105.61 20.03 103.48 17.13 100.83 15.19 Z" />
<path fill="#c9f0fb" d=" M 13.11 45.06 C 15.86 31.42 27.74 21.21 40.17 15.81 C 40.80 16.43 41.42 17.05 42.04 17.68 C 30.49 23.15 20.45 32.84 15.86 44.91 C 15.17 44.95 13.80 45.03 13.11 45.06 Z" />
<path fill="#579fda" d=" M 15.86 44.91 C 20.45 32.84 30.49 23.15 42.04 17.68 C 42.35 17.98 42.97 18.59 43.28 18.90 C 42.86 19.89 42.43 20.87 41.98 21.85 C 35.16 21.95 35.93 29.88 30.24 32.31 C 29.38 34.28 32.03 34.90 33.15 35.90 C 36.65 38.47 37.58 31.49 40.01 30.07 C 42.73 31.88 45.36 33.91 47.04 36.78 C 48.40 43.19 57.29 41.41 59.28 47.58 C 58.16 48.37 57.04 49.17 55.94 50.00 C 53.02 47.57 49.67 45.76 46.06 44.58 C 47.64 39.33 42.30 37.24 38.76 40.68 C 49.32 41.81 31.27 44.18 32.08 50.60 C 31.03 51.54 29.99 52.48 28.95 53.43 C 26.96 50.48 25.38 47.30 23.57 44.25 C 20.59 43.62 18.59 47.05 16.03 48.16 C 15.99 47.35 15.90 45.72 15.86 44.91 Z" />
<path fill="#5e598f" d=" M 43.28 18.90 C 47.93 22.40 53.29 25.51 56.02 30.89 C 59.38 35.46 63.61 39.49 67.14 44.05 C 57.25 38.89 45.61 33.23 41.98 21.85 C 42.43 20.87 42.86 19.89 43.28 18.90 Z" />
<path fill="#fff2b5" d=" M 109.70 21.23 C 112.93 21.50 115.92 22.97 119.15 23.30 C 117.69 24.48 115.88 25.27 113.98 25.11 C 112.62 23.74 111.20 22.44 109.70 21.23 Z" />
<path fill="#406db1" d=" M 30.24 32.31 C 35.93 29.88 35.16 21.95 41.98 21.85 C 45.61 33.23 57.25 38.89 67.14 44.05 C 71.25 44.90 73.51 54.78 77.75 51.00 C 78.34 52.39 78.89 53.80 79.40 55.22 C 79.63 57.22 79.59 59.99 82.26 59.90 C 81.24 61.64 80.30 63.41 79.39 65.21 C 78.34 63.97 77.27 62.77 76.20 61.55 C 71.10 49.73 58.86 41.38 47.04 36.78 C 45.36 33.91 42.73 31.88 40.01 30.07 C 37.58 31.49 36.65 38.47 33.15 35.90 C 32.03 34.90 29.38 34.28 30.24 32.31 Z" />
<path fill="#de5e1f" d=" M 94.29 24.10 C 102.98 22.85 108.88 31.96 117.29 31.06 L 117.93 31.21 C 121.28 36.50 117.06 42.22 119.14 47.80 C 111.82 50.77 113.59 38.38 107.87 35.20 C 102.75 29.85 96.19 36.83 90.36 36.42 C 87.48 36.12 83.72 39.89 87.81 41.21 C 92.77 41.79 90.33 49.32 85.94 47.44 C 85.03 47.42 84.12 47.42 83.21 47.41 C 80.80 45.25 78.30 43.20 75.77 41.19 C 79.92 37.18 69.89 29.87 76.83 29.99 C 82.22 32.43 82.55 38.36 83.82 43.29 C 83.95 41.78 84.21 38.75 84.34 37.24 C 84.63 36.26 84.93 35.28 85.22 34.31 C 89.94 32.75 91.10 27.40 94.29 24.10 Z" />
<path fill="#faaa29" d=" M 75.26 24.88 C 82.55 23.97 84.02 31.62 84.34 37.24 C 84.21 38.75 83.95 41.78 83.82 43.29 C 82.55 38.36 82.22 32.43 76.83 29.99 C 75.31 28.71 75.44 26.67 75.26 24.88 Z" />
<path fill="#921504" d=" M 63.99 25.89 C 66.89 26.41 68.45 28.89 70.13 31.04 C 67.48 30.67 63.77 29.04 63.99 25.89 Z" />
<path fill="#e6baa1" d=" M 115.30 27.13 C 117.24 26.61 118.98 29.27 118.53 30.97 L 117.93 31.21 L 117.29 31.06 C 116.65 29.74 115.98 28.43 115.30 27.13 Z" />
<path fill="#ebccba" d=" M 59.05 31.79 C 58.28 28.97 59.77 28.97 61.90 30.08 C 62.17 30.50 62.73 31.33 63.01 31.75 C 64.15 33.53 65.54 36.53 68.11 35.23 C 70.62 37.27 73.18 39.25 75.77 41.19 C 78.30 43.20 80.80 45.25 83.21 47.41 C 78.33 51.74 73.53 44.43 69.85 41.55 C 66.10 44.67 63.50 33.94 59.05 31.79 Z" />
<path fill="#a28290" d=" M 56.02 30.89 C 57.03 31.19 58.04 31.48 59.05 31.79 C 63.50 33.94 66.10 44.67 69.85 41.55 C 73.53 44.43 78.33 51.74 83.21 47.41 C 84.12 47.42 85.03 47.42 85.94 47.44 C 87.42 48.54 88.86 49.70 90.21 50.96 C 88.12 50.63 86.04 50.23 83.94 49.97 C 85.84 52.30 87.82 54.60 89.25 57.27 C 85.50 55.42 82.69 52.18 79.17 49.95 C 79.41 51.70 79.63 53.46 79.40 55.22 C 78.89 53.80 78.34 52.39 77.75 51.00 C 73.51 54.78 71.25 44.90 67.14 44.05 C 63.61 39.49 59.38 35.46 56.02 30.89 Z" />
<path fill="#fab563" d=" M 63.01 31.75 C 65.56 30.47 66.74 33.69 68.11 35.23 C 65.54 36.53 64.15 33.53 63.01 31.75 Z" />
<path fill="#de8632" d=" M 117.93 31.21 L 118.53 30.97 C 121.55 34.10 122.25 38.77 123.04 42.86 C 123.03 46.27 123.03 49.68 122.99 53.09 C 122.66 55.03 122.81 57.94 121.07 59.05 C 120.80 55.24 120.29 51.45 119.14 47.80 C 117.06 42.22 121.28 36.50 117.93 31.21 Z" />
<path fill="#c24218" d=" M 90.36 36.42 C 96.19 36.83 102.75 29.85 107.87 35.20 C 113.59 38.38 111.82 50.77 119.14 47.80 C 120.29 51.45 120.80 55.24 121.07 59.05 C 120.53 61.51 119.58 63.85 118.75 66.22 L 118.17 65.72 C 118.13 65.28 118.06 64.39 118.03 63.94 C 118.21 60.86 116.13 58.46 114.03 56.49 C 113.08 55.48 112.11 54.48 111.05 53.59 C 107.86 51.40 98.48 45.46 98.02 49.86 C 93.86 48.35 88.41 45.98 91.54 52.16 C 91.21 51.86 90.54 51.26 90.21 50.96 C 88.86 49.70 87.42 48.54 85.94 47.44 C 90.33 49.32 92.77 41.79 87.81 41.21 C 83.72 39.89 87.48 36.12 90.36 36.42 Z" />
<path fill="#3a84ce" d=" M 47.04 36.78 C 58.86 41.38 71.10 49.73 76.20 61.55 C 73.57 65.17 69.49 73.93 65.73 67.03 C 68.88 62.17 70.14 51.68 62.33 50.80 C 61.29 49.74 60.27 48.67 59.28 47.58 C 57.29 41.41 48.40 43.19 47.04 36.78 Z" />
<path fill="#43a3ee" d=" M 38.76 40.68 C 42.30 37.24 47.64 39.33 46.06 44.58 C 40.06 46.36 36.80 54.52 42.76 58.26 C 48.54 63.00 58.02 57.42 55.94 50.00 C 57.04 49.17 58.16 48.37 59.28 47.58 C 60.27 48.67 61.29 49.74 62.33 50.80 C 60.90 59.44 53.50 65.50 44.78 65.33 C 38.20 62.39 35.48 56.38 32.08 50.60 C 31.27 44.18 49.32 41.81 38.76 40.68 Z" />
<path fill="#ebcab7" d=" M 123.04 42.86 C 126.19 45.21 124.85 50.72 122.99 53.09 C 123.03 49.68 123.03 46.27 123.04 42.86 Z" />
<path fill="#5886bf" d=" M 16.03 48.16 C 18.59 47.05 20.59 43.62 23.57 44.25 C 25.38 47.30 26.96 50.48 28.95 53.43 C 28.73 54.57 28.49 55.71 28.25 56.85 C 26.30 55.51 24.10 54.63 21.75 55.44 C 19.91 55.46 18.08 55.56 16.26 55.83 C 15.96 54.16 15.82 52.48 15.70 50.79 C 15.78 50.14 15.95 48.82 16.03 48.16 Z" />
<path fill="#f9d433" d=" M 13.11 45.06 C 13.80 45.03 15.17 44.95 15.86 44.91 C 15.90 45.72 15.99 47.35 16.03 48.16 C 15.95 48.82 15.78 50.14 15.70 50.79 C 14.92 54.26 14.93 57.71 15.74 61.16 C 16.08 62.41 16.54 63.61 16.96 64.84 C 17.89 69.67 20.33 73.99 23.22 77.91 C 18.50 79.17 17.61 70.48 14.00 67.80 C 14.17 70.29 14.64 72.74 14.87 75.22 C 9.51 73.23 12.04 60.60 6.06 62.90 C 5.16 56.03 9.38 50.29 13.11 45.06 Z" />
<path fill="#65bef2" d=" M 42.76 58.26 C 36.80 54.52 40.06 46.36 46.06 44.58 C 49.67 45.76 53.02 47.57 55.94 50.00 C 58.02 57.42 48.54 63.00 42.76 58.26 Z" />
<path fill="#872439" d=" M 91.54 52.16 C 88.41 45.98 93.86 48.35 98.02 49.86 C 98.48 45.46 107.86 51.40 111.05 53.59 C 105.12 56.97 97.60 59.02 93.19 52.00 C 92.94 55.55 92.25 55.18 91.54 52.16 Z" />
<path fill="#5a5f88" d=" M 79.17 49.95 C 82.69 52.18 85.50 55.42 89.25 57.27 C 89.49 57.41 89.99 57.67 90.24 57.81 C 90.88 59.85 91.50 61.89 92.14 63.94 C 92.06 64.76 91.90 66.39 91.82 67.21 C 90.86 63.93 89.89 58.40 85.32 60.72 C 84.31 60.42 83.28 60.15 82.26 59.90 C 79.59 59.99 79.63 57.22 79.40 55.22 C 79.63 53.46 79.41 51.70 79.17 49.95 Z" />
<path fill="#6b3254" d=" M 83.94 49.97 C 86.04 50.23 88.12 50.63 90.21 50.96 C 90.54 51.26 91.21 51.86 91.54 52.16 C 92.25 55.18 92.94 55.55 93.19 52.00 C 97.60 59.02 105.12 56.97 111.05 53.59 C 112.11 54.48 113.08 55.48 114.03 56.49 C 113.62 57.67 113.24 58.85 112.90 60.05 C 105.47 63.64 97.50 59.93 90.24 57.81 C 89.99 57.67 89.49 57.41 89.25 57.27 C 87.82 54.60 85.84 52.30 83.94 49.97 Z" />
<path fill="#9e9e79" d=" M 15.74 61.16 C 14.93 57.71 14.92 54.26 15.70 50.79 C 15.82 52.48 15.96 54.16 16.26 55.83 C 16.44 56.76 16.64 57.69 16.85 58.62 C 16.57 59.26 16.02 60.53 15.74 61.16 Z" />
<path fill="#3482d6" d=" M 28.95 53.43 C 29.99 52.48 31.03 51.54 32.08 50.60 C 35.48 56.38 38.20 62.39 44.78 65.33 C 47.43 67.79 50.65 69.50 54.14 70.44 C 50.37 71.15 46.62 70.57 42.89 70.04 C 37.20 66.59 32.55 61.86 28.25 56.85 C 28.49 55.71 28.73 54.57 28.95 53.43 Z" />
<path fill="#1d8dea" d=" M 62.33 50.80 C 70.14 51.68 68.88 62.17 65.73 67.03 C 61.95 68.42 58.21 70.13 54.14 70.44 C 50.65 69.50 47.43 67.79 44.78 65.33 C 53.50 65.50 60.90 59.44 62.33 50.80 Z" />
<path fill="#525d97" d=" M 16.26 55.83 C 18.08 55.56 19.91 55.46 21.75 55.44 C 28.60 64.58 37.67 71.73 47.76 76.97 C 49.75 78.20 51.78 79.36 53.92 80.29 C 54.27 81.53 54.61 82.77 54.90 84.02 C 41.19 77.42 28.35 68.58 16.85 58.62 C 16.64 57.69 16.44 56.76 16.26 55.83 Z" />
<path fill="#406ab3" d=" M 21.75 55.44 C 24.10 54.63 26.30 55.51 28.25 56.85 C 32.55 61.86 37.20 66.59 42.89 70.04 C 45.30 71.64 47.76 73.14 50.17 74.73 C 49.35 75.46 48.55 76.21 47.76 76.97 C 37.67 71.73 28.60 64.58 21.75 55.44 Z" />
<path fill="#68567e" d=" M 112.90 60.05 C 113.24 58.85 113.62 57.67 114.03 56.49 C 116.13 58.46 118.21 60.86 118.03 63.94 C 115.05 61.50 115.12 66.30 114.33 68.22 C 114.05 67.60 113.50 66.37 113.22 65.75 C 113.07 63.85 112.96 61.95 112.90 60.05 Z" />
<path fill="#49325e" d=" M 90.24 57.81 C 97.50 59.93 105.47 63.64 112.90 60.05 C 112.96 61.95 113.07 63.85 113.22 65.75 C 111.59 66.68 109.94 67.62 108.18 68.30 C 102.89 66.64 97.38 65.78 92.14 63.94 C 91.50 61.89 90.88 59.85 90.24 57.81 Z" />
<path fill="#695783" d=" M 15.74 61.16 C 16.02 60.53 16.57 59.26 16.85 58.62 C 28.35 68.58 41.19 77.42 54.90 84.02 L 55.09 84.82 C 55.10 85.32 55.11 86.32 55.12 86.82 L 54.24 86.64 C 52.92 86.33 51.60 86.06 50.27 85.81 C 39.89 81.22 30.63 74.74 21.09 68.73 C 19.78 67.36 18.39 66.08 16.96 64.84 C 16.54 63.61 16.08 62.41 15.74 61.16 Z" />
<path fill="#245e9c" d=" M 82.26 59.90 C 83.28 60.15 84.31 60.42 85.32 60.72 C 86.19 65.29 84.73 70.14 81.56 73.54 C 72.18 75.24 63.62 80.29 53.92 80.29 C 51.78 79.36 49.75 78.20 47.76 76.97 C 48.55 76.21 49.35 75.46 50.17 74.73 C 60.14 73.52 75.40 77.88 79.39 65.21 C 80.30 63.41 81.24 61.64 82.26 59.90 Z" />
<path fill="#22477a" d=" M 85.32 60.72 C 89.89 58.40 90.86 63.93 91.82 67.21 C 90.57 71.62 86.68 79.74 81.23 75.51 C 74.30 82.66 64.37 83.55 55.09 84.82 L 54.90 84.02 C 54.61 82.77 54.27 81.53 53.92 80.29 C 63.62 80.29 72.18 75.24 81.56 73.54 C 84.73 70.14 86.19 65.29 85.32 60.72 Z" />
<path fill="#f8b124" d=" M 6.06 62.90 C 12.04 60.60 9.51 73.23 14.87 75.22 C 14.64 72.74 14.17 70.29 14.00 67.80 C 17.61 70.48 18.50 79.17 23.22 77.91 L 23.95 78.11 C 25.69 80.01 27.38 81.96 29.09 83.89 C 29.07 85.40 30.70 90.07 27.74 88.22 C 23.06 85.90 20.51 79.35 15.01 78.92 C 14.21 84.82 22.26 87.86 21.08 94.17 C 17.35 92.34 16.87 87.35 12.93 85.88 C 12.91 94.24 26.37 96.92 24.15 105.36 C 22.60 103.89 20.81 102.19 19.96 105.21 C 9.83 94.05 2.41 78.24 6.06 62.90 Z" />
<path fill="#2173be" d=" M 65.73 67.03 C 69.49 73.93 73.57 65.17 76.20 61.55 C 77.27 62.77 78.34 63.97 79.39 65.21 C 75.40 77.88 60.14 73.52 50.17 74.73 C 47.76 73.14 45.30 71.64 42.89 70.04 C 46.62 70.57 50.37 71.15 54.14 70.44 C 58.21 70.13 61.95 68.42 65.73 67.03 Z" />
<path fill="#4a74ab" d=" M 114.33 68.22 C 115.12 66.30 115.05 61.50 118.03 63.94 C 118.06 64.39 118.13 65.28 118.17 65.72 C 118.09 66.21 117.94 67.17 117.87 67.65 C 112.33 74.27 114.80 84.04 110.32 91.24 C 108.09 93.94 107.47 91.74 107.19 89.24 C 111.45 82.96 113.38 75.67 114.33 68.22 Z" />
<path fill="#27315d" d=" M 92.14 63.94 C 97.38 65.78 102.89 66.64 108.18 68.30 C 98.27 70.39 90.59 79.28 90.97 89.62 C 86.01 89.29 83.03 94.38 77.82 93.30 C 70.83 89.35 62.42 89.95 55.12 86.82 C 55.11 86.32 55.10 85.32 55.09 84.82 C 64.37 83.55 74.30 82.66 81.23 75.51 C 86.68 79.74 90.57 71.62 91.82 67.21 C 91.90 66.39 92.06 64.76 92.14 63.94 Z" />
<path fill="#ce8129" d=" M 16.96 64.84 C 18.39 66.08 19.78 67.36 21.09 68.73 C 24.84 80.21 38.57 86.69 50.27 85.81 C 51.60 86.06 52.92 86.33 54.24 86.64 C 51.10 87.02 48.02 87.71 44.90 88.22 C 36.57 87.69 30.73 81.65 23.95 78.11 L 23.22 77.91 C 20.33 73.99 17.89 69.67 16.96 64.84 Z" />
<path fill="#253f82" d=" M 108.18 68.30 C 109.94 67.62 111.59 66.68 113.22 65.75 C 113.50 66.37 114.05 67.60 114.33 68.22 C 113.38 75.67 111.45 82.96 107.19 89.24 C 106.96 88.89 106.49 88.20 106.25 87.86 C 107.91 92.56 104.61 95.46 101.14 97.27 C 97.96 94.46 94.87 91.42 90.97 89.62 C 90.59 79.28 98.27 70.39 108.18 68.30 Z" />
<path fill="#d0e9f1" d=" M 118.17 65.72 L 118.75 66.22 C 122.94 75.08 117.73 85.12 115.06 94.10 C 114.06 93.22 113.04 92.36 111.98 91.56 C 115.23 83.98 117.87 75.98 117.87 67.65 C 117.94 67.17 118.09 66.21 118.17 65.72 Z" />
<path fill="#5ba1cf" d=" M 110.32 91.24 C 114.80 84.04 112.33 74.27 117.87 67.65 C 117.87 75.98 115.23 83.98 111.98 91.56 C 111.29 92.38 110.60 93.21 109.90 94.03 C 110.01 93.34 110.22 91.94 110.32 91.24 Z" />
<path fill="#73466c" d=" M 21.09 68.73 C 30.63 74.74 39.89 81.22 50.27 85.81 C 38.57 86.69 24.84 80.21 21.09 68.73 Z" />
<path fill="#fcdcb1" d=" M 5.96 70.01 C 7.56 68.08 8.91 84.27 6.99 78.96 C 6.13 76.06 6.00 73.01 5.96 70.01 Z" />
<path fill="#8f4045" d=" M 23.95 78.11 C 30.73 81.65 36.57 87.69 44.90 88.22 C 44.71 89.90 44.62 91.59 44.54 93.28 C 40.06 92.20 35.68 90.38 32.15 87.37 C 36.01 86.41 30.30 85.02 29.09 83.89 C 27.38 81.96 25.69 80.01 23.95 78.11 Z" />
<path fill="#ef8811" d=" M 15.01 78.92 C 20.51 79.35 23.06 85.90 27.74 88.22 C 30.70 90.07 29.07 85.40 29.09 83.89 C 30.30 85.02 36.01 86.41 32.15 87.37 C 35.68 90.38 40.06 92.20 44.54 93.28 C 46.32 95.77 49.66 95.82 52.33 96.74 C 53.28 97.09 54.23 97.45 55.17 97.83 C 55.80 98.60 56.40 99.38 56.99 100.17 C 50.43 99.20 44.74 94.90 37.95 95.03 C 33.87 94.05 39.47 97.92 37.00 99.55 C 31.82 96.22 27.32 91.92 22.00 88.81 C 22.76 91.90 25.65 93.33 27.88 95.24 C 25.42 97.56 28.02 99.66 29.30 101.83 C 27.85 101.17 26.42 100.46 24.94 99.87 C 26.65 102.47 28.62 104.89 30.89 107.02 C 29.71 110.60 34.94 112.26 35.44 115.73 C 34.13 115.73 32.80 115.05 31.96 114.06 C 29.45 111.08 26.73 108.29 24.15 105.36 C 26.37 96.92 12.91 94.24 12.93 85.88 C 16.87 87.35 17.35 92.34 21.08 94.17 C 22.26 87.86 14.21 84.82 15.01 78.92 Z" />
<path fill="#652641" d=" M 44.90 88.22 C 48.02 87.71 51.10 87.02 54.24 86.64 L 55.12 86.82 C 62.42 89.95 70.83 89.35 77.82 93.30 C 81.87 98.45 87.30 102.71 93.98 100.00 L 94.00 100.80 C 91.43 101.37 88.87 101.97 86.28 102.39 C 81.87 101.04 77.17 100.96 72.65 101.66 C 67.85 101.76 63.12 100.86 58.60 99.33 C 59.65 96.82 66.33 101.02 67.11 98.01 C 63.13 97.97 59.15 97.91 55.17 97.83 C 54.23 97.45 53.28 97.09 52.33 96.74 C 51.49 95.59 48.81 93.86 51.81 93.80 C 56.83 91.90 46.32 93.30 44.54 93.28 C 44.62 91.59 44.71 89.90 44.90 88.22 Z" />
<path fill="#8a6869" d=" M 106.25 87.86 C 106.49 88.20 106.96 88.89 107.19 89.24 C 107.47 91.74 108.09 93.94 110.32 91.24 C 110.22 91.94 110.01 93.34 109.90 94.03 C 109.34 95.10 108.77 96.19 108.64 97.41 C 107.47 98.42 106.44 97.35 105.58 96.53 C 103.44 99.67 99.35 102.17 95.68 99.88 C 97.53 99.09 99.40 98.31 101.14 97.27 C 104.61 95.46 107.91 92.56 106.25 87.86 Z" />
<path fill="#d44404" d=" M 22.00 88.81 C 27.32 91.92 31.82 96.22 37.00 99.55 C 49.98 108.41 66.44 108.98 81.34 108.37 C 87.05 106.02 76.69 108.65 75.90 106.12 C 83.09 106.04 90.14 104.50 97.11 102.88 C 96.10 102.14 95.05 101.47 94.00 100.80 L 93.98 100.00 C 94.40 99.97 95.25 99.91 95.68 99.88 C 99.35 102.17 103.44 99.67 105.58 96.53 C 106.44 97.35 107.47 98.42 108.64 97.41 C 109.32 97.09 110.67 96.44 111.35 96.12 C 108.36 102.19 102.53 106.18 97.71 110.74 C 95.81 111.64 92.28 113.92 96.11 114.86 C 93.89 116.18 91.50 117.30 88.94 117.75 C 82.34 118.46 76.16 121.15 69.74 122.68 L 68.90 122.89 C 65.92 122.94 62.96 122.98 59.98 123.03 C 56.51 122.59 51.80 123.44 49.25 120.70 C 46.78 116.11 41.18 115.47 37.31 112.67 C 34.92 108.67 43.11 112.59 45.23 111.84 C 41.03 108.63 36.09 107.11 30.89 107.02 C 28.62 104.89 26.65 102.47 24.94 99.87 C 26.42 100.46 27.85 101.17 29.30 101.83 C 28.02 99.66 25.42 97.56 27.88 95.24 C 25.65 93.33 22.76 91.90 22.00 88.81 Z" />
<path fill="#4c3469" d=" M 77.82 93.30 C 83.03 94.38 86.01 89.29 90.97 89.62 C 94.87 91.42 97.96 94.46 101.14 97.27 C 99.40 98.31 97.53 99.09 95.68 99.88 C 95.25 99.91 94.40 99.97 93.98 100.00 C 87.30 102.71 81.87 98.45 77.82 93.30 Z" />
<path fill="#e8a794" d=" M 109.90 94.03 C 110.60 93.21 111.29 92.38 111.98 91.56 C 113.04 92.36 114.06 93.22 115.06 94.10 C 112.48 99.65 108.63 106.49 103.14 109.46 C 101.26 109.54 99.50 110.22 97.71 110.74 C 102.53 106.18 108.36 102.19 111.35 96.12 C 110.67 96.44 109.32 97.09 108.64 97.41 C 108.77 96.19 109.34 95.10 109.90 94.03 Z" />
<path fill="#a95a29" d=" M 44.54 93.28 C 46.32 93.30 56.83 91.90 51.81 93.80 C 48.81 93.86 51.49 95.59 52.33 96.74 C 49.66 95.82 46.32 95.77 44.54 93.28 Z" />
<path fill="#e96205" d=" M 37.00 99.55 C 39.47 97.92 33.87 94.05 37.95 95.03 C 44.74 94.90 50.43 99.20 56.99 100.17 C 56.40 99.38 55.80 98.60 55.17 97.83 C 59.15 97.91 63.13 97.97 67.11 98.01 C 66.33 101.02 59.65 96.82 58.60 99.33 C 63.12 100.86 67.85 101.76 72.65 101.66 C 75.83 106.03 81.79 102.74 86.28 102.39 C 88.87 101.97 91.43 101.37 94.00 100.80 C 95.05 101.47 96.10 102.14 97.11 102.88 C 90.14 104.50 83.09 106.04 75.90 106.12 C 76.69 108.65 87.05 106.02 81.34 108.37 C 66.44 108.98 49.98 108.41 37.00 99.55 Z" />
<path fill="#ba3f17" d=" M 72.65 101.66 C 77.17 100.96 81.87 101.04 86.28 102.39 C 81.79 102.74 75.83 106.03 72.65 101.66 Z" />
<path fill="#ffbc64" d=" M 19.96 105.21 C 20.81 102.19 22.60 103.89 24.15 105.36 C 26.73 108.29 29.45 111.08 31.96 114.06 C 26.98 112.78 22.89 109.32 19.96 105.21 Z" />
<path fill="#f0630e" d=" M 30.89 107.02 C 36.09 107.11 41.03 108.63 45.23 111.84 C 43.11 112.59 34.92 108.67 37.31 112.67 C 41.18 115.47 46.78 116.11 49.25 120.70 C 47.61 120.81 45.44 122.55 44.21 120.75 C 42.63 118.94 40.31 118.18 38.00 117.83 C 36.82 117.71 36.01 116.68 35.44 115.73 C 34.94 112.26 29.71 110.60 30.89 107.02 Z" />
<path fill="#ea6743" d=" M 97.71 110.74 C 99.50 110.22 101.26 109.54 103.14 109.46 C 100.99 111.44 99.06 114.10 96.11 114.86 C 92.28 113.92 95.81 111.64 97.71 110.74 Z" />
<path fill="#fdcfae" d=" M 38.00 117.83 C 40.31 118.18 42.63 118.94 44.21 120.75 C 42.34 123.07 39.00 119.64 38.00 117.83 Z" />
<path fill="#e4a486" d=" M 69.74 122.68 C 76.16 121.15 82.34 118.46 88.94 117.75 C 88.01 121.18 74.50 119.80 80.13 124.04 C 76.65 123.69 73.19 123.16 69.74 122.68 Z" />
<path fill="#feaa8a" d=" M 59.98 123.03 C 62.96 122.98 65.92 122.94 68.90 122.89 C 69.85 124.89 60.38 124.75 59.98 123.03 Z" />
</svg>
